PathFileType	4	(X/Y/Z)	C:\Users\Willi\SynologyDrive\Deimel_MSc_Deadlift\Athlete_03\Athlete_3_22_07_06\dl_90\marker_experimental.trc
DataRate	CameraRate	NumFrames	NumMarkers	Units	OrigDataRate	OrigDataStartFrame	OrigNumFrames
200.000000	200.000000	4	59	mm	200.000000	4716	5390
Frame#	Time	BR			GLAB			RFHD			LFHD			C7			T6			SPINMOL			SPINM2			SPINM3			T12			BELTOL			BELT2			BELT3			SACROL			SACR2			SACR3			LTHOL			LTH2			LTH3			LSHAOL			LSHA2			LSHA3			LHEE			LTOE			LM5			RTHOL			RTH2			RTH3			RSHAOL			RSHA2			RSHA3			RHEE			RTOE			RM5			STRN			XIPH			LACR			LUAOL			LUA2			LUA3			LLAOL			LLA2			LLA3			LWRU			RACR			RUAOL			RUA2			RUA3			RLAOL			RLA2			RLA3			RWRU			BL			USERMO0			USERMO1			USERMO2			USERMO3			USERMO4			USERMO5			
		X1	Y1	Z1	X2	Y2	Z2	X3	Y3	Z3	X4	Y4	Z4	X5	Y5	Z5	X6	Y6	Z6	X7	Y7	Z7	X8	Y8	Z8	X9	Y9	Z9	X10	Y10	Z10	X11	Y11	Z11	X12	Y12	Z12	X13	Y13	Z13	X14	Y14	Z14	X15	Y15	Z15	X16	Y16	Z16	X17	Y17	Z17	X18	Y18	Z18	X19	Y19	Z19	X20	Y20	Z20	X21	Y21	Z21	X22	Y22	Z22	X23	Y23	Z23	X24	Y24	Z24	X25	Y25	Z25	X26	Y26	Z26	X27	Y27	Z27	X28	Y28	Z28	X29	Y29	Z29	X30	Y30	Z30	X31	Y31	Z31	X32	Y32	Z32	X33	Y33	Z33	X34	Y34	Z34	X35	Y35	Z35	X36	Y36	Z36	X37	Y37	Z37	X38	Y38	Z38	X39	Y39	Z39	X40	Y40	Z40	X41	Y41	Z41	X42	Y42	Z42	X43	Y43	Z43	X44	Y44	Z44	X45	Y45	Z45	X46	Y46	Z46	X47	Y47	Z47	X48	Y48	Z48	X49	Y49	Z49	X50	Y50	Z50	X51	Y51	Z51	X52	Y52	Z52	X53	Y53	Z53	X54	Y54	Z54	X55	Y55	Z55	X56	Y56	Z56	X57	Y57	Z57	X58	Y58	Z58	X59	Y59	Z59	

4717	23.58	231.3411865234375	527.4814453125	-103.9677124023437	469.7829284667969	1374.63623046875	-1218.993774414062	421.6494140625	1417.498413085938	-1144.03125	421.9494934082031	1413.00439453125	-1300.666137695312	217.274169921875	1359.972900390625	-1221.04931640625	65.40755462646484	1230.0185546875	-1224.239379882812	45.20237350463867	1209.803955078125	-1227.835571289062	2.719671487808228	1170.213623046875	-1172.916137695312	7.796215534210205	1161.064208984375	-1221.173706054688	-8.594369888305664	1124.84765625	-1222.061645507812	-58.19677352905273	1103.325317382812	-1224.243530273438	-88.5008544921875	1049.997924804688	-1173.206909179688	-91.94853210449219	1051.1064453125	-1223.1748046875	-117.2117385864258	994.4897460937501	-1243.8857421875	-107.7378616333008	1000.255310058594	-1193.736083984375	-150.4760894775391	951.6372070312501	-1205.701538085938	33.16638946533203	740.0601196289064	-1454.181396484375	13.3214864730835	663.7226562500001	-1440.374267578125	58.02197647094727	683.4411621093751	-1453.551147460938	101.5120010375977	343.832244873047	-1466.165893554688	66.60891723632812	273.9218139648439	-1457.31640625	114.0694046020508	283.3652343750001	-1461.113525390625	45.1376953125	66.97860717773446	-1380.315673828125	253.9707946777344	74.89087677001962	-1396.62109375	206.9078674316406	50.76849365234384	-1501.559936523438	40.19609832763672	707.9198608398439	-997.7846069335938	105.6104888916016	663.4502563476564	-986.4061279296875	59.00636291503906	648.5571899414064	-997.4808959960938	94.27406311035156	338.9861755371094	-972.7815551757812	140.4296569824219	274.4893188476563	-973.4896240234375	90.46826171875	278.6848144531251	-979.7560424804688	54.0890007019043	64.25347900390632	-1063.944213867188	261.4910583496094	68.07617950439459	-1032.780883789062	209.3703765869141	66.01628875732428	-935.7742309570312	304.9907836914062	1214.96630859375	-1227.241943359375	279.3746948242188	1059.62646484375	-1222.526733398438	244.6148223876953	1227.4404296875	-1433.043212890625	214.8844451904297	1077.428588867188	-1484.112548828125	182.5426940917969	1021.346374511719	-1497.310180664062	231.3390197753906	1013.70654296875	-1482.600219726562	236.7329406738281	792.5556640625001	-1479.345703125	219.0967407226562	730.1605834960939	-1488.667602539062	253.2335052490234	736.4097290039064	-1453.236328125	236.0998229980469	638.7922973632814	-1470.445556640625	258.388427734375	1227.908203125	-1024.063842773438	246.4995727539062	1045.494995117188	-989.7622680664061	264.6997985839844	987.5986328125001	-1015.61181640625	238.7049102783203	981.6594848632814	-972.8458251953124	252.4796295166016	784.4916992187501	-982.9336547851562	266.0666809082031	729.8967285156251	-1014.396301269531	244.5544586181641	722.3749389648439	-968.7562255859375	241.8755798339844	644.3395996093751	-970.7730712890625	173.7280426025391	495.757537841797	-2325.659912109375	0.05525889992713928	0.009028660133481031	-0.0747620016336441	0.3446010053157806	0.1083810031414032	-0.1722799986600876	0.04562899842858315	0.08908279985189438	-0.05712850019335746	0.1046670004725456	2.142149925231934	-2.092259883880615	2.04557991027832	2.911309957504272	-1.93011999130249	2.776839971542358	0	0	
4718	23.585	231.4113159179688	526.6326293945312	-103.8786239624023	470.0887756347656	1373.582763671875	-1219.220458984375	422.0041809082031	1416.499877929688	-1144.238891601562	422.2705078125	1411.995483398438	-1300.911254882812	217.6670227050781	1359.141235351562	-1221.203369140625	65.57845306396484	1229.520141601562	-1224.364379882812	45.32638168334961	1209.360229492188	-1227.9443359375	2.785470724105835	1169.8583984375	-1173.003540039062	7.814634799957275	1160.708251953125	-1221.270385742188	-8.686017990112305	1124.558349609375	-1222.16357421875	-58.3331184387207	1103.139404296875	-1224.333374023438	-88.74008941650391	1049.869140625	-1173.296264648438	-92.20188903808594	1050.99609375	-1223.262817382812	-117.6006546020508	994.3392333984376	-1243.996948242188	-108.1289291381836	1000.077514648438	-1193.860473632812	-150.9168243408203	951.5090332031251	-1205.828979492188	32.78956985473633	739.9215087890626	-1454.332397460938	13.03788948059082	663.5590820312501	-1440.546508789062	57.71897888183594	683.3343505859376	-1453.694580078125	101.4439239501953	343.794158935547	-1466.276245117188	66.51799774169922	273.9019775390626	-1457.43896484375	114.0161743164062	283.3319396972657	-1461.197509765625	45.13323211669922	66.95683288574227	-1380.336059570312	253.9635009765625	74.89671325683602	-1396.631103515625	206.9023742675781	50.75856781005869	-1501.564086914062	39.96987915039062	707.8227539062501	-997.8784790039062	105.4808959960938	663.4835205078126	-986.5396118164062	58.88749313354492	648.4957885742189	-997.5327758789062	94.27230834960938	338.9989318847657	-972.810302734375	140.4266967773438	274.4950866699219	-973.5374145507812	90.458984375	278.6953125000001	-979.7879028320312	54.07562637329102	64.24304199218757	-1063.942626953125	261.4846801757812	68.08429718017584	-1032.77392578125	209.3678436279297	66.02272033691412	-935.7774047851562	305.1267700195312	1213.9697265625	-1227.45166015625	279.1307678222656	1058.6982421875	-1222.72607421875	244.8051147460938	1226.586547851562	-1433.198852539062	214.9909515380859	1076.613525390625	-1484.251342773438	182.6286315917969	1020.547912597656	-1497.460815429688	231.4127655029297	1012.879211425781	-1482.715576171875	236.7534942626953	791.7435302734376	-1479.389526367188	219.1138305664062	729.3312377929689	-1488.663696289062	253.2462615966797	735.6054687500001	-1453.231567382812	236.1307067871094	637.9840698242189	-1470.380249023438	258.6992797851562	1226.98876953125	-1024.260131835938	246.6259765625	1044.62841796875	-989.8873901367186	264.7958374023438	986.7153320312501	-1015.707702636719	238.7985992431641	980.8046264648439	-972.9423828124999	252.5212554931641	783.6638793945314	-982.9682006835938	266.08935546875	729.0528564453126	-1014.397705078125	244.6014404296875	721.5544433593751	-968.7586059570312	241.9222717285156	643.5305786132814	-970.721923828125	173.7789001464844	495.0814208984377	-2325.58642578125	0.05529310181736946	0.009220340289175516	-0.07707230001688004	0.328016996383667	0.1085380017757416	-0.176829993724823	0.0457829013466835	0.08889099955558777	-0.05703299865126609	0.105884000658989	2.133709907531738	-2.087800025939941	2.041490077972412	2.908809900283813	-1.916129946708679	2.777420043945312	0	0	
4719	23.59	231.4899139404297	525.7628173828125	-103.7912445068359	470.3938903808594	1372.516723632812	-1219.447998046875	422.3629760742188	1415.490356445312	-1144.445434570312	422.5858154296875	1410.971923828125	-1301.155639648438	218.0571594238281	1358.298950195312	-1221.346069335938	65.74493408203125	1229.014282226562	-1224.472290039062	45.447021484375	1208.90771484375	-1228.036743164062	2.850569725036621	1169.492309570312	-1173.074462890625	7.82921028137207	1160.343627929688	-1221.350952148438	-8.780511856079102	1124.260009765625	-1222.250122070312	-58.47149276733398	1102.943481445312	-1224.410400390625	-88.98126220703125	1049.731811523438	-1173.371704101562	-92.45767211914062	1050.876342773438	-1223.336791992188	-117.9950790405273	994.1784667968751	-1244.09228515625	-108.5226745605469	999.8893432617189	-1193.967407226562	-151.3621368408203	951.3717651367189	-1205.9384765625	32.41561508178711	739.7810058593751	-1454.473999023438	12.75932598114014	663.3922729492189	-1440.713989257812	57.42134094238281	683.2274169921876	-1453.83056640625	101.3815612792969	343.7578430175782	-1466.385375976562	66.42536926269531	273.8883361816407	-1457.563842773438	113.9683227539062	283.3006896972657	-1461.281127929688	45.13061904907227	66.93388366699227	-1380.357055664062	253.9560241699219	74.90286254882821	-1396.641967773438	206.8956909179688	50.74749755859384	-1501.568237304688	39.73544692993164	707.7186279296876	-997.9539794921875	105.3450469970703	663.5131225585939	-986.6555786132812	58.76187515258789	648.4285278320314	-997.5618286132812	94.26947784423828	339.0078430175782	-972.8270263671875	140.4220275878906	274.4970703125001	-973.5741577148438	90.44923400878906	278.7019042968751	-979.8095092773438	54.0623779296875	64.23268890380866	-1063.940551757812	261.4781188964844	68.09264373779303	-1032.76611328125	209.364990234375	66.02793121337896	-935.7789916992188	305.258056640625	1212.961181640625	-1227.653930664062	278.8799133300781	1057.759155273438	-1222.924560546875	244.9861907958984	1225.721923828125	-1433.343994140625	215.0775451660156	1075.78857421875	-1484.386474609375	182.6930847167969	1019.737731933594	-1497.5986328125	231.4670867919922	1012.0419921875	-1482.825317382812	236.7653656005859	790.9211425781251	-1479.434448242188	219.1263427734375	728.4925537109376	-1488.659301757812	253.2583465576172	734.7931518554689	-1453.230224609375	236.1638641357422	637.1676025390626	-1470.31689453125	259.0143127441406	1226.055541992188	-1024.449584960938	246.7578430175781	1043.748046875	-990.0111083984374	264.8968505859375	985.8193969726564	-1015.803771972656	238.9001922607422	979.9359741210939	-973.0380859374999	252.5716400146484	782.8237304687501	-983.0046997070312	266.1197814941406	728.1965332031251	-1014.403442382812	244.6588592529297	720.7213134765626	-968.7643432617188	241.9798431396484	642.7097778320314	-970.6738891601562	173.8417358398438	494.4008789062502	-2325.5185546875	0.05503040179610252	0.009414239786565309	-0.0795992985367775	0.3116660118103027	0.1090990006923676	-0.1807010024785995	0.0457753986120224	0.08910530060529709	-0.0571049004793167	0.1076520010828972	2.12487006187439	-2.084320068359375	2.037790060043335	2.905790090560913	-1.900660037994385	2.777909994125366	0	0	
4720	23.595	231.5782470703125	524.8707275390625	-103.7061386108398	470.6980285644531	1371.43701171875	-1219.676147460938	422.7268371582031	1414.469116210938	-1144.650146484375	422.8962707519531	1409.933837890625	-1301.398193359375	218.4444122314453	1357.447998046875	-1221.4765625	65.9073486328125	1228.5029296875	-1224.562255859375	45.56464385986328	1208.448486328125	-1228.111572265625	2.915600061416626	1169.11669921875	-1173.1279296875	7.840334415435791	1159.972290039062	-1221.414428710938	-8.877063751220703	1123.954467773438	-1222.3203125	-58.61175155639648	1102.739379882812	-1224.473999023438	-89.2242431640625	1049.587646484375	-1173.432495117188	-92.71570587158203	1050.748779296875	-1223.396118164062	-118.3950347900391	994.0092163085939	-1244.170288085938	-108.9186553955078	999.6932373046876	-1194.0556640625	-151.8117523193359	951.2276000976564	-1206.028076171875	32.04302978515625	739.6376342773439	-1454.6044921875	12.48411464691162	663.2218627929689	-1440.872314453125	57.12715148925781	683.1194458007814	-1453.95654296875	101.3247909545898	343.7243957519532	-1466.490356445312	66.33212280273438	273.8811950683595	-1457.688598632812	113.9251708984375	283.2725219726564	-1461.362548828125	45.13028717041016	66.90982055664071	-1380.378662109375	253.9484558105469	74.90930175781259	-1396.653442382812	206.8883514404297	50.73573684692392	-1501.572509765625	39.48966979980469	707.6077270507814	-998.0091552734375	105.1991577148438	663.5387573242189	-986.7511596679688	58.62598419189453	648.3553466796876	-997.5667114257812	94.26332092285156	339.0125122070313	-972.8324584960938	140.4135894775391	274.4957580566407	-973.598388671875	90.43742370605469	278.7042541503907	-979.8196411132812	54.04931640625	64.22267913818366	-1063.937622070312	261.4714660644531	68.10124206542974	-1032.757202148438	209.3617858886719	66.03166198730474	-935.7787475585938	305.3845825195312	1211.943481445312	-1227.84716796875	278.6227416992188	1056.81201171875	-1223.119750976562	245.1570739746094	1224.848266601562	-1433.477783203125	215.1423034667969	1074.954956054688	-1484.5166015625	182.7341613769531	1018.916564941406	-1497.721313476562	231.5003051757812	1011.196166992188	-1482.928344726562	236.7693481445312	790.0891113281251	-1479.477783203125	219.1349029541016	727.6459960937501	-1488.653442382812	253.2699432373047	733.9735717773439	-1453.230590820312	236.1991271972656	636.3438720703126	-1470.255126953125	259.3322448730469	1225.110717773438	-1024.630493164062	246.8950805664062	1042.855712890625	-990.1346435546874	265.003173828125	984.9130859375001	-1015.90234375	239.0109252929688	979.0550537109376	-973.1347656249999	252.6307830810547	781.9726562500001	-983.0442504882812	266.1572875976562	727.3287353515626	-1014.414855957031	244.7259368896484	719.8771362304689	-968.7741088867188	242.0477142333984	641.8783569335939	-970.6293334960938	173.917724609375	493.7142944335939	-2325.45556640625	0.05445260182023048	0.00961097981780768	-0.08219420164823532	0.2963230013847351	0.1100270003080368	-0.1837199926376343	0.04557130113244057	0.08974699676036835	-0.05739650130271911	0.109774999320507	2.115639925003052	-2.081949949264526	2.034539937973022	2.902129888534546	-1.883960008621216	2.778189897537231	0	0	
